<?xml version="1.0" encoding="UTF-8" standalone="no"?>
<!DOCTYPE svg PUBLIC "-//W3C//DTD SVG 1.1//EN"
 "http://www.w3.org/Graphics/SVG/1.1/DTD/svg11.dtd">
<!-- Generated by graphviz version 2.40.1 (20161225.0304)
 -->
<!-- Title: dependencies Pages: 1 -->
<svg width="2095pt" height="284pt"
 viewBox="0.00 0.00 2095.00 284.00" xmlns="http://www.w3.org/2000/svg" xmlns:xlink="http://www.w3.org/1999/xlink">
<g id="graph0" class="graph" transform="scale(1 1) rotate(0) translate(4 280)">
<title>dependencies</title>
<polygon fill="#ffffff" stroke="transparent" points="-4,4 -4,-280 2091,-280 2091,4 -4,4"/>
<text text-anchor="start" x="1022.5091" y="-42.4" font-family="sans-serif" font-weight="bold" font-size="14.00" fill="#000000">Legend</text>
<polygon fill="#ffffb3" stroke="transparent" points="809.5,-10 809.5,-30 829.5,-30 829.5,-10 809.5,-10"/>
<text text-anchor="start" x="833.129" y="-15.4" font-family="sans-serif" font-size="14.00" fill="#000000"> &#160;Declarations</text>
<polygon fill="#8dd3c7" stroke="transparent" points="922.5,-10 922.5,-30 942.5,-30 942.5,-10 922.5,-10"/>
<text text-anchor="start" x="946.2251" y="-15.4" font-family="sans-serif" font-size="14.00" fill="#000000"> &#160;Module</text>
<polygon fill="#80b1d3" stroke="transparent" points="1008.5,-10 1008.5,-30 1028.5,-30 1028.5,-10 1008.5,-10"/>
<text text-anchor="start" x="1032.2812" y="-15.4" font-family="sans-serif" font-size="14.00" fill="#000000"> &#160;Bootstrap</text>
<polygon fill="#fdb462" stroke="transparent" points="1105.5,-10 1105.5,-30 1125.5,-30 1125.5,-10 1105.5,-10"/>
<text text-anchor="start" x="1129.1732" y="-15.4" font-family="sans-serif" font-size="14.00" fill="#000000"> &#160;Providers</text>
<polygon fill="#fb8072" stroke="transparent" points="1201.5,-10 1201.5,-30 1221.5,-30 1221.5,-10 1201.5,-10"/>
<text text-anchor="start" x="1225.2258" y="-15.4" font-family="sans-serif" font-size="14.00" fill="#000000"> &#160;Exports</text>
<g id="clust1" class="cluster">
<title>cluster_AppModule</title>
<polygon fill="none" stroke="#000000" stroke-dasharray="1,5" points="8,-70 8,-268 2079,-268 2079,-70 8,-70"/>
</g>
<g id="clust2" class="cluster">
<title>cluster_AppModule_declarations</title>
<polygon fill="none" stroke="#000000" points="16,-78 16,-130 2071,-130 2071,-78 16,-78"/>
</g>
<g id="clust19" class="cluster">
<title>cluster_AppModule_bootstrap</title>
<polygon fill="none" stroke="#000000" points="1000,-208 1000,-260 1124,-260 1124,-208 1000,-208"/>
</g>
<!-- AboutUsComponent -->
<g id="node1" class="node">
<title>AboutUsComponent</title>
<polygon fill="#ffffb3" stroke="#000000" points="2062.8809,-122 1931.1191,-122 1931.1191,-86 2062.8809,-86 2062.8809,-122"/>
<text text-anchor="middle" x="1997" y="-99.8" font-family="Times,serif" font-size="14.00" fill="#000000">AboutUsComponent</text>
</g>
<!-- AppModule -->
<g id="node15" class="node">
<title>AppModule</title>
<polygon fill="#8dd3c7" stroke="#000000" points="1103.6571,-187 1100.6571,-191 1079.6571,-191 1076.6571,-187 1020.3429,-187 1020.3429,-151 1103.6571,-151 1103.6571,-187"/>
<text text-anchor="middle" x="1062" y="-164.8" font-family="Times,serif" font-size="14.00" fill="#000000">AppModule</text>
</g>
<!-- AboutUsComponent&#45;&gt;AppModule -->
<g id="edge1" class="edge">
<title>AboutUsComponent&#45;&gt;AppModule</title>
<path fill="none" stroke="#000000" d="M1997,-122.0908C1997,-145.1328 1997,-182 1997,-182 1997,-182 1113.6863,-182 1113.6863,-182"/>
<polygon fill="#000000" stroke="#000000" points="1113.6864,-178.5001 1103.6863,-182 1113.6863,-185.5001 1113.6864,-178.5001"/>
</g>
<!-- AppComponent -->
<g id="node2" class="node">
<title>AppComponent</title>
<polygon fill="#ffffb3" stroke="#000000" points="1912.9399,-122 1807.0601,-122 1807.0601,-86 1912.9399,-86 1912.9399,-122"/>
<text text-anchor="middle" x="1860" y="-99.8" font-family="Times,serif" font-size="14.00" fill="#000000">AppComponent</text>
</g>
<!-- AppComponent&#45;&gt;AppModule -->
<g id="edge2" class="edge">
<title>AppComponent&#45;&gt;AppModule</title>
<path fill="none" stroke="#000000" d="M1860,-122.0449C1860,-143.6623 1860,-177 1860,-177 1860,-177 1113.7804,-177 1113.7804,-177"/>
<polygon fill="#000000" stroke="#000000" points="1113.7804,-173.5001 1103.7804,-177 1113.7804,-180.5001 1113.7804,-173.5001"/>
</g>
<!-- BestellenComponent -->
<g id="node3" class="node">
<title>BestellenComponent</title>
<polygon fill="#ffffb3" stroke="#000000" points="1789.9299,-122 1656.0701,-122 1656.0701,-86 1789.9299,-86 1789.9299,-122"/>
<text text-anchor="middle" x="1723" y="-99.8" font-family="Times,serif" font-size="14.00" fill="#000000">BestellenComponent</text>
</g>
<!-- BestellenComponent&#45;&gt;AppModule -->
<g id="edge3" class="edge">
<title>BestellenComponent&#45;&gt;AppModule</title>
<path fill="none" stroke="#000000" d="M1723,-122.2228C1723,-142.3652 1723,-172 1723,-172 1723,-172 1113.85,-172 1113.85,-172"/>
<polygon fill="#000000" stroke="#000000" points="1113.85,-168.5001 1103.85,-172 1113.8499,-175.5001 1113.85,-168.5001"/>
</g>
<!-- DatenschutzComponent -->
<g id="node4" class="node">
<title>DatenschutzComponent</title>
<polygon fill="#ffffb3" stroke="#000000" points="1638.024,-122 1487.976,-122 1487.976,-86 1638.024,-86 1638.024,-122"/>
<text text-anchor="middle" x="1563" y="-99.8" font-family="Times,serif" font-size="14.00" fill="#000000">DatenschutzComponent</text>
</g>
<!-- DatenschutzComponent&#45;&gt;AppModule -->
<g id="edge4" class="edge">
<title>DatenschutzComponent&#45;&gt;AppModule</title>
<path fill="none" stroke="#000000" d="M1563,-122.2222C1563,-140.8285 1563,-167 1563,-167 1563,-167 1113.8533,-167 1113.8533,-167"/>
<polygon fill="#000000" stroke="#000000" points="1113.8533,-163.5001 1103.8533,-167 1113.8532,-170.5001 1113.8533,-163.5001"/>
</g>
<!-- FooterComponent -->
<g id="node5" class="node">
<title>FooterComponent</title>
<polygon fill="#ffffb3" stroke="#000000" points="1469.8809,-122 1352.1191,-122 1352.1191,-86 1469.8809,-86 1469.8809,-122"/>
<text text-anchor="middle" x="1411" y="-99.8" font-family="Times,serif" font-size="14.00" fill="#000000">FooterComponent</text>
</g>
<!-- FooterComponent&#45;&gt;AppModule -->
<g id="edge5" class="edge">
<title>FooterComponent&#45;&gt;AppModule</title>
<path fill="none" stroke="#000000" d="M1411,-122.0336C1411,-139.0597 1411,-162 1411,-162 1411,-162 1113.7509,-162 1113.7509,-162"/>
<polygon fill="#000000" stroke="#000000" points="1113.7509,-158.5001 1103.7509,-162 1113.7509,-165.5001 1113.7509,-158.5001"/>
</g>
<!-- HeaderComponent -->
<g id="node6" class="node">
<title>HeaderComponent</title>
<polygon fill="#ffffb3" stroke="#000000" points="1333.7437,-122 1212.2563,-122 1212.2563,-86 1333.7437,-86 1333.7437,-122"/>
<text text-anchor="middle" x="1273" y="-99.8" font-family="Times,serif" font-size="14.00" fill="#000000">HeaderComponent</text>
</g>
<!-- HeaderComponent&#45;&gt;AppModule -->
<g id="edge6" class="edge">
<title>HeaderComponent&#45;&gt;AppModule</title>
<path fill="none" stroke="#000000" d="M1273,-122.2396C1273,-137.5706 1273,-157 1273,-157 1273,-157 1113.6868,-157 1113.6868,-157"/>
<polygon fill="#000000" stroke="#000000" points="1113.6868,-153.5001 1103.6868,-157 1113.6868,-160.5001 1113.6868,-153.5001"/>
</g>
<!-- HomeComponent -->
<g id="node7" class="node">
<title>HomeComponent</title>
<polygon fill="#ffffb3" stroke="#000000" points="1193.5451,-122 1078.4549,-122 1078.4549,-86 1193.5451,-86 1193.5451,-122"/>
<text text-anchor="middle" x="1136" y="-99.8" font-family="Times,serif" font-size="14.00" fill="#000000">HomeComponent</text>
</g>
<!-- HomeComponent&#45;&gt;AppModule -->
<g id="edge7" class="edge">
<title>HomeComponent&#45;&gt;AppModule</title>
<path fill="none" stroke="#000000" d="M1091.028,-122.1061C1091.028,-122.1061 1091.028,-140.991 1091.028,-140.991"/>
<polygon fill="#000000" stroke="#000000" points="1087.5281,-140.9909 1091.028,-150.991 1094.5281,-140.991 1087.5281,-140.9909"/>
</g>
<!-- ImpressumComponent -->
<g id="node8" class="node">
<title>ImpressumComponent</title>
<polygon fill="#ffffb3" stroke="#000000" points="1059.5393,-122 916.4607,-122 916.4607,-86 1059.5393,-86 1059.5393,-122"/>
<text text-anchor="middle" x="988" y="-99.8" font-family="Times,serif" font-size="14.00" fill="#000000">ImpressumComponent</text>
</g>
<!-- ImpressumComponent&#45;&gt;AppModule -->
<g id="edge8" class="edge">
<title>ImpressumComponent&#45;&gt;AppModule</title>
<path fill="none" stroke="#000000" d="M1039.9706,-122.1061C1039.9706,-122.1061 1039.9706,-140.991 1039.9706,-140.991"/>
<polygon fill="#000000" stroke="#000000" points="1036.4706,-140.9909 1039.9706,-150.991 1043.4706,-140.991 1036.4706,-140.9909"/>
</g>
<!-- KontaktComponent -->
<g id="node9" class="node">
<title>KontaktComponent</title>
<polygon fill="#ffffb3" stroke="#000000" points="898.4356,-122 771.5644,-122 771.5644,-86 898.4356,-86 898.4356,-122"/>
<text text-anchor="middle" x="835" y="-99.8" font-family="Times,serif" font-size="14.00" fill="#000000">KontaktComponent</text>
</g>
<!-- KontaktComponent&#45;&gt;AppModule -->
<g id="edge9" class="edge">
<title>KontaktComponent&#45;&gt;AppModule</title>
<path fill="none" stroke="#000000" d="M835,-122.2396C835,-137.5706 835,-157 835,-157 835,-157 1010.1002,-157 1010.1002,-157"/>
<polygon fill="#000000" stroke="#000000" points="1010.1002,-160.5001 1020.1002,-157 1010.1001,-153.5001 1010.1002,-160.5001"/>
</g>
<!-- LageComponent -->
<g id="node10" class="node">
<title>LageComponent</title>
<polygon fill="#ffffb3" stroke="#000000" points="753.8147,-122 644.1853,-122 644.1853,-86 753.8147,-86 753.8147,-122"/>
<text text-anchor="middle" x="699" y="-99.8" font-family="Times,serif" font-size="14.00" fill="#000000">LageComponent</text>
</g>
<!-- LageComponent&#45;&gt;AppModule -->
<g id="edge10" class="edge">
<title>LageComponent&#45;&gt;AppModule</title>
<path fill="none" stroke="#000000" d="M699,-122.0336C699,-139.0597 699,-162 699,-162 699,-162 1010.0047,-162 1010.0047,-162"/>
<polygon fill="#000000" stroke="#000000" points="1010.0047,-165.5001 1020.0047,-162 1010.0046,-158.5001 1010.0047,-165.5001"/>
</g>
<!-- LeistungComponent -->
<g id="node11" class="node">
<title>LeistungComponent</title>
<polygon fill="#ffffb3" stroke="#000000" points="626.3258,-122 495.6742,-122 495.6742,-86 626.3258,-86 626.3258,-122"/>
<text text-anchor="middle" x="561" y="-99.8" font-family="Times,serif" font-size="14.00" fill="#000000">LeistungComponent</text>
</g>
<!-- LeistungComponent&#45;&gt;AppModule -->
<g id="edge11" class="edge">
<title>LeistungComponent&#45;&gt;AppModule</title>
<path fill="none" stroke="#000000" d="M561,-122.2222C561,-140.8285 561,-167 561,-167 561,-167 1010.1467,-167 1010.1467,-167"/>
<polygon fill="#000000" stroke="#000000" points="1010.1468,-170.5001 1020.1467,-167 1010.1467,-163.5001 1010.1468,-170.5001"/>
</g>
<!-- LoginRegistrierenComponent -->
<g id="node12" class="node">
<title>LoginRegistrierenComponent</title>
<polygon fill="#ffffb3" stroke="#000000" points="477.6937,-122 294.3063,-122 294.3063,-86 477.6937,-86 477.6937,-122"/>
<text text-anchor="middle" x="386" y="-99.8" font-family="Times,serif" font-size="14.00" fill="#000000">LoginRegistrierenComponent</text>
</g>
<!-- LoginRegistrierenComponent&#45;&gt;AppModule -->
<g id="edge12" class="edge">
<title>LoginRegistrierenComponent&#45;&gt;AppModule</title>
<path fill="none" stroke="#000000" d="M386,-122.2228C386,-142.3652 386,-172 386,-172 386,-172 1010.2233,-172 1010.2233,-172"/>
<polygon fill="#000000" stroke="#000000" points="1010.2234,-175.5001 1020.2233,-172 1010.2233,-168.5001 1010.2234,-175.5001"/>
</g>
<!-- ShopComponent -->
<g id="node13" class="node">
<title>ShopComponent</title>
<polygon fill="#ffffb3" stroke="#000000" points="276.1151,-122 165.8849,-122 165.8849,-86 276.1151,-86 276.1151,-122"/>
<text text-anchor="middle" x="221" y="-99.8" font-family="Times,serif" font-size="14.00" fill="#000000">ShopComponent</text>
</g>
<!-- ShopComponent&#45;&gt;AppModule -->
<g id="edge13" class="edge">
<title>ShopComponent&#45;&gt;AppModule</title>
<path fill="none" stroke="#000000" d="M221,-122.0449C221,-143.6623 221,-177 221,-177 221,-177 1010.2947,-177 1010.2947,-177"/>
<polygon fill="#000000" stroke="#000000" points="1010.2947,-180.5001 1020.2947,-177 1010.2946,-173.5001 1010.2947,-180.5001"/>
</g>
<!-- SidebarComponent -->
<g id="node14" class="node">
<title>SidebarComponent</title>
<polygon fill="#ffffb3" stroke="#000000" points="148.0954,-122 23.9046,-122 23.9046,-86 148.0954,-86 148.0954,-122"/>
<text text-anchor="middle" x="86" y="-99.8" font-family="Times,serif" font-size="14.00" fill="#000000">SidebarComponent</text>
</g>
<!-- SidebarComponent&#45;&gt;AppModule -->
<g id="edge14" class="edge">
<title>SidebarComponent&#45;&gt;AppModule</title>
<path fill="none" stroke="#000000" d="M86,-122.0908C86,-145.1328 86,-182 86,-182 86,-182 1010.0625,-182 1010.0625,-182"/>
<polygon fill="#000000" stroke="#000000" points="1010.0625,-185.5001 1020.0625,-182 1010.0625,-178.5001 1010.0625,-185.5001"/>
</g>
<!-- AppComponent  -->
<g id="node16" class="node">
<title>AppComponent </title>
<polygon fill="#80b1d3" stroke="#000000" points="1116.439,-252 1007.561,-252 1007.561,-216 1116.439,-216 1116.439,-252"/>
<text text-anchor="middle" x="1062" y="-229.8" font-family="Times,serif" font-size="14.00" fill="#000000">AppComponent </text>
</g>
<!-- AppModule&#45;&gt;AppComponent  -->
<g id="edge15" class="edge">
<title>AppModule&#45;&gt;AppComponent </title>
<path fill="none" stroke="#000000" stroke-dasharray="1,5" d="M1062,-187.1061C1062,-187.1061 1062,-205.991 1062,-205.991"/>
<polygon fill="#000000" stroke="#000000" points="1058.5001,-205.9909 1062,-215.991 1065.5001,-205.991 1058.5001,-205.9909"/>
</g>
</g>
</svg>
